<svg width="72" height="62" viewBox="0 0 72 62" fill="none" xmlns="http://www.w3.org/2000/svg">
<path d="M3.5 39C2.66667 38.6667 1 39.5 1 38C1 36.5 1 29.5 1 26C1 24.5 1 24.5 2 24.5C2.4 24.5 6.5 24.5 8.5 24.5V57C8.5 58.1667 9 60.5 11 60.5C13 60.5 44.5 60.5 60 60.5C61 60.5 63.1 60 63.5 58C63.9 56 63.6667 34.8333 63.5 24.5H69C70 24.5 70.5 24.5 70.5 26.5C70.5 27.3944 70.5 34.5 70.5 38C70.5 39.5 69.2 39 68 39M5.5 20H65C61.6667 16.6667 51.2 10.5 36 10.5C20.8 10.5 9.33333 16.6667 5.5 20Z" stroke="#483F32" stroke-width="2" stroke-linecap="round" stroke-linejoin="round"/>
<path d="M58.5 24V27.5" stroke="#483F32" stroke-width="2" stroke-linecap="round" stroke-linejoin="round"/>
<path d="M58.5 32V42" stroke="#483F32" stroke-width="2" stroke-linecap="round" stroke-linejoin="round"/>
<path d="M40.25 5.5C40.25 7.57107 38.5711 9.25 36.5 9.25C34.4289 9.25 32.75 7.57107 32.75 5.5C32.75 3.42893 34.4289 1.75 36.5 1.75C38.5711 1.75 40.25 3.42893 40.25 5.5Z" stroke="#483F32" stroke-width="1.5"/>
</svg>
