<svg width="69" height="71" viewBox="0 0 69 71" fill="none" xmlns="http://www.w3.org/2000/svg">
<path d="M13 28.75H12.25V30.25H13V28.75ZM12 1L12 1.75L12 1ZM1 9L0.253722 8.92537L0.25 8.96259V9H1ZM1 22H0.25V22.025L0.251661 22.0499L1 22ZM7.5 29.5H8.25V28.9272L7.69734 28.7764L7.5 29.5ZM7.5 67H6.75C6.75 67.0494 6.75488 67.0987 6.76456 67.1471L7.5 67ZM14.5 67L15.1431 67.3859C15.2131 67.2693 15.25 67.1359 15.25 67H14.5ZM15.25 34V33.25H13.75V34H15.25ZM13 30.25C14.4297 30.25 16.7004 29.5617 18.6133 28.2424C20.5413 26.9127 22.25 24.8366 22.25 22H20.75C20.75 24.1634 19.4587 25.8373 17.7617 27.0076C16.0496 28.1883 14.0703 28.75 13 28.75V30.25ZM22.25 22C22.25 21.9852 22.25 21.9703 22.25 21.9555C22.25 21.9407 22.25 21.926 22.25 21.9112C22.25 21.8965 22.25 21.8817 22.25 21.867C22.25 21.8523 22.25 21.8377 22.25 21.823C22.25 21.8084 22.25 21.7937 22.25 21.7791C22.25 21.7645 22.25 21.7499 22.25 21.7354C22.25 21.7208 22.25 21.7063 22.25 21.6917C22.25 21.6772 22.25 21.6627 22.25 21.6483C22.25 21.6338 22.25 21.6193 22.25 21.6049C22.25 21.5905 22.25 21.5761 22.25 21.5617C22.25 21.5473 22.25 21.533 22.25 21.5187C22.25 21.5043 22.25 21.49 22.25 21.4757C22.25 21.4614 22.25 21.4472 22.25 21.4329C22.25 21.4187 22.25 21.4045 22.25 21.3903C22.25 21.3761 22.25 21.3619 22.25 21.3478C22.25 21.3336 22.25 21.3195 22.25 21.3054C22.25 21.2913 22.25 21.2772 22.25 21.2632C22.25 21.2491 22.25 21.2351 22.25 21.221C22.25 21.207 22.25 21.193 22.25 21.1791C22.25 21.1651 22.25 21.1512 22.25 21.1372C22.25 21.1233 22.25 21.1094 22.25 21.0955C22.25 21.0816 22.25 21.0678 22.25 21.054C22.25 21.0401 22.25 21.0263 22.25 21.0125C22.25 20.9987 22.25 20.985 22.25 20.9712C22.25 20.9575 22.25 20.9437 22.25 20.93C22.25 20.9163 22.25 20.9027 22.25 20.889C22.25 20.8753 22.25 20.8617 22.25 20.8481C22.25 20.8345 22.25 20.8209 22.25 20.8073C22.25 20.7937 22.25 20.7802 22.25 20.7667C22.25 20.7531 22.25 20.7396 22.25 20.7262C22.25 20.7127 22.25 20.6992 22.25 20.6858C22.25 20.6723 22.25 20.6589 22.25 20.6455C22.25 20.6321 22.25 20.6187 22.25 20.6054C22.25 20.592 22.25 20.5787 22.25 20.5654C22.25 20.5521 22.25 20.5388 22.25 20.5255C22.25 20.5122 22.25 20.499 22.25 20.4858C22.25 20.4725 22.25 20.4593 22.25 20.4462C22.25 20.433 22.25 20.4198 22.25 20.4067C22.25 20.3935 22.25 20.3804 22.25 20.3673C22.25 20.3542 22.25 20.3411 22.25 20.3281C22.25 20.315 22.25 20.302 22.25 20.289C22.25 20.276 22.25 20.263 22.25 20.25C22.25 20.237 22.25 20.2241 22.25 20.2111C22.25 20.1982 22.25 20.1853 22.25 20.1724C22.25 20.1595 22.25 20.1466 22.25 20.1338C22.25 20.121 22.25 20.1081 22.25 20.0953C22.25 20.0825 22.25 20.0697 22.25 20.057C22.25 20.0442 22.25 20.0314 22.25 20.0187C22.25 20.006 22.25 19.9933 22.25 19.9806C22.25 19.9679 22.25 19.9553 22.25 19.9426C22.25 19.93 22.25 19.9174 22.25 19.9048C22.25 19.8922 22.25 19.8796 22.25 19.867C22.25 19.8545 22.25 19.8419 22.25 19.8294C22.25 19.8169 22.25 19.8044 22.25 19.7919C22.25 19.7794 22.25 19.7669 22.25 19.7545C22.25 19.7421 22.25 19.7296 22.25 19.7172C22.25 19.7048 22.25 19.6925 22.25 19.6801C22.25 19.6677 22.25 19.6554 22.25 19.6431C22.25 19.6308 22.25 19.6185 22.25 19.6062C22.25 19.5939 22.25 19.5816 22.25 19.5694C22.25 19.5572 22.25 19.5449 22.25 19.5327C22.25 19.5205 22.25 19.5083 22.25 19.4962C22.25 19.484 22.25 19.4719 22.25 19.4598C22.25 19.4476 22.25 19.4355 22.25 19.4234C22.25 19.4114 22.25 19.3993 22.25 19.3872C22.25 19.3752 22.25 19.3632 22.25 19.3512C22.25 19.3392 22.25 19.3272 22.25 19.3152C22.25 19.3032 22.25 19.2913 22.25 19.2793C22.25 19.2674 22.25 19.2555 22.25 19.2436C22.25 19.2317 22.25 19.2198 22.25 19.208C22.25 19.1961 22.25 19.1843 22.25 19.1725C22.25 19.1607 22.25 19.1489 22.25 19.1371C22.25 19.1253 22.25 19.1136 22.25 19.1018C22.25 19.0901 22.25 19.0784 22.25 19.0667C22.25 19.055 22.25 19.0433 22.25 19.0316C22.25 19.0199 22.25 19.0083 22.25 18.9967C22.25 18.985 22.25 18.9734 22.25 18.9618C22.25 18.9503 22.25 18.9387 22.25 18.9271C22.25 18.9156 22.25 18.904 22.25 18.8925C22.25 18.881 22.25 18.8695 22.25 18.858C22.25 18.8466 22.25 18.8351 22.25 18.8236C22.25 18.8122 22.25 18.8008 22.25 18.7894C22.25 18.778 22.25 18.7666 22.25 18.7552C22.25 18.7438 22.25 18.7325 22.25 18.7212C22.25 18.7098 22.25 18.6985 22.25 18.6872C22.25 18.6759 22.25 18.6646 22.25 18.6534C22.25 18.6421 22.25 18.6309 22.25 18.6197C22.25 18.6084 22.25 18.5972 22.25 18.586C22.25 18.5748 22.25 18.5637 22.25 18.5525C22.25 18.5414 22.25 18.5302 22.25 18.5191C22.25 18.508 22.25 18.4969 22.25 18.4858C22.25 18.4747 22.25 18.4637 22.25 18.4526C22.25 18.4416 22.25 18.4305 22.25 18.4195C22.25 18.4085 22.25 18.3975 22.25 18.3865C22.25 18.3756 22.25 18.3646 22.25 18.3537C22.25 18.3427 22.25 18.3318 22.25 18.3209C22.25 18.31 22.25 18.2991 22.25 18.2882C22.25 18.2774 22.25 18.2665 22.25 18.2557C22.25 18.2448 22.25 18.234 22.25 18.2232C22.25 18.2124 22.25 18.2016 22.25 18.1908C22.25 18.1801 22.25 18.1693 22.25 18.1586C22.25 18.1479 22.25 18.1371 22.25 18.1264C22.25 18.1157 22.25 18.105 22.25 18.0944C22.25 18.0837 22.25 18.0731 22.25 18.0624C22.25 18.0518 22.25 18.0412 22.25 18.0306C22.25 18.02 22.25 18.0094 22.25 17.9988C22.25 17.9883 22.25 17.9777 22.25 17.9672C22.25 17.9566 22.25 17.9461 22.25 17.9356C22.25 17.9251 22.25 17.9146 22.25 17.9042C22.25 17.8937 22.25 17.8833 22.25 17.8728C22.25 17.8624 22.25 17.852 22.25 17.8416C22.25 17.8312 22.25 17.8208 22.25 17.8104C22.25 17.8001 22.25 17.7897 22.25 17.7794C22.25 17.769 22.25 17.7587 22.25 17.7484C22.25 17.7381 22.25 17.7278 22.25 17.7175C22.25 17.7073 22.25 17.697 22.25 17.6868C22.25 17.6765 22.25 17.6663 22.25 17.6561C22.25 17.6459 22.25 17.6357 22.25 17.6255C22.25 17.6154 22.25 17.6052 22.25 17.5951C22.25 17.5849 22.25 17.5748 22.25 17.5647C22.25 17.5546 22.25 17.5445 22.25 17.5344C22.25 17.5243 22.25 17.5142 22.25 17.5042C22.25 17.4942 22.25 17.4841 22.25 17.4741C22.25 17.4641 22.25 17.4541 22.25 17.4441C22.25 17.4341 22.25 17.4241 22.25 17.4142C22.25 17.4042 22.25 17.3943 22.25 17.3844C22.25 17.3744 22.25 17.3645 22.25 17.3546C22.25 17.3447 22.25 17.3349 22.25 17.325C22.25 17.3151 22.25 17.3053 22.25 17.2955C22.25 17.2856 22.25 17.2758 22.25 17.266C22.25 17.2562 22.25 17.2464 22.25 17.2366C22.25 17.2269 22.25 17.2171 22.25 17.2074C22.25 17.1976 22.25 17.1879 22.25 17.1782C22.25 17.1685 22.25 17.1588 22.25 17.1491C22.25 17.1394 22.25 17.1297 22.25 17.1201C22.25 17.1104 22.25 17.1008 22.25 17.0912C22.25 17.0816 22.25 17.0719 22.25 17.0624C22.25 17.0528 22.25 17.0432 22.25 17.0336C22.25 17.024 22.25 17.0145 22.25 17.005C22.25 16.9954 22.25 16.9859 22.25 16.9764C22.25 16.9669 22.25 16.9574 22.25 16.9479C22.25 16.9384 22.25 16.929 22.25 16.9195C22.25 16.9101 22.25 16.9007 22.25 16.8912C22.25 16.8818 22.25 16.8724 22.25 16.863C22.25 16.8536 22.25 16.8442 22.25 16.8349C22.25 16.8255 22.25 16.8162 22.25 16.8068C22.25 16.7975 22.25 16.7882 22.25 16.7789C22.25 16.7696 22.25 16.7603 22.25 16.751C22.25 16.7417 22.25 16.7324 22.25 16.7232C22.25 16.7139 22.25 16.7047 22.25 16.6955C22.25 16.6863 22.25 16.677 22.25 16.6679C22.25 16.6587 22.25 16.6495 22.25 16.6403C22.25 16.6311 22.25 16.622 22.25 16.6128C22.25 16.6037 22.25 16.5946 22.25 16.5855C22.25 16.5763 22.25 16.5672 22.25 16.5582C22.25 16.5491 22.25 16.54 22.25 16.5309C22.25 16.5219 22.25 16.5128 22.25 16.5038C22.25 16.4948 22.25 16.4857 22.25 16.4767C22.25 16.4677 22.25 16.4587 22.25 16.4498C22.25 16.4408 22.25 16.4318 22.25 16.4229C22.25 16.4139 22.25 16.405 22.25 16.396C22.25 16.3871 22.25 16.3782 22.25 16.3693C22.25 16.3604 22.25 16.3515 22.25 16.3426C22.25 16.3337 22.25 16.3249 22.25 16.316C22.25 16.3072 22.25 16.2983 22.25 16.2895C22.25 16.2807 22.25 16.2719 22.25 16.2631C22.25 16.2543 22.25 16.2455 22.25 16.2367C22.25 16.228 22.25 16.2192 22.25 16.2105C22.25 16.2017 22.25 16.193 22.25 16.1842C22.25 16.1755 22.25 16.1668 22.25 16.1581C22.25 16.1494 22.25 16.1407 22.25 16.1321C22.25 16.1234 22.25 16.1147 22.25 16.1061C22.25 16.0974 22.25 16.0888 22.25 16.0802C22.25 16.0716 22.25 16.0629 22.25 16.0543C22.25 16.0457 22.25 16.0372 22.25 16.0286C22.25 16.02 22.25 16.0115 22.25 16.0029C22.25 15.9944 22.25 15.9858 22.25 15.9773C22.25 15.9688 22.25 15.9603 22.25 15.9518C22.25 15.9433 22.25 15.9348 22.25 15.9263C22.25 15.9178 22.25 15.9093 22.25 15.9009C22.25 15.8924 22.25 15.884 22.25 15.8756C22.25 15.8671 22.25 15.8587 22.25 15.8503C22.25 15.8419 22.25 15.8335 22.25 15.8251C22.25 15.8167 22.25 15.8084 22.25 15.8C22.25 15.7916 22.25 15.7833 22.25 15.775C22.25 15.7666 22.25 15.7583 22.25 15.75C22.25 15.7417 22.25 15.7334 22.25 15.7251C22.25 15.7168 22.25 15.7085 22.25 15.7002C22.25 15.692 22.25 15.6837 22.25 15.6755C22.25 15.6672 22.25 15.659 22.25 15.6508C22.25 15.6425 22.25 15.6343 22.25 15.6261C22.25 15.6179 22.25 15.6097 22.25 15.6016C22.25 15.5934 22.25 15.5852 22.25 15.5771C22.25 15.5689 22.25 15.5608 22.25 15.5526C22.25 15.5445 22.25 15.5364 22.25 15.5283C22.25 15.5201 22.25 15.512 22.25 15.5039C22.25 15.4959 22.25 15.4878 22.25 15.4797C22.25 15.4716 22.25 15.4636 22.25 15.4555C22.25 15.4475 22.25 15.4394 22.25 15.4314C22.25 15.4234 22.25 15.4154 22.25 15.4074C22.25 15.3994 22.25 15.3914 22.25 15.3834C22.25 15.3754 22.25 15.3674 22.25 15.3595C22.25 15.3515 22.25 15.3435 22.25 15.3356C22.25 15.3277 22.25 15.3197 22.25 15.3118C22.25 15.3039 22.25 15.296 22.25 15.2881C22.25 15.2802 22.25 15.2723 22.25 15.2644C22.25 15.2565 22.25 15.2486 22.25 15.2408C22.25 15.2329 22.25 15.2251 22.25 15.2172C22.25 15.2094 22.25 15.2015 22.25 15.1937C22.25 15.1859 22.25 15.1781 22.25 15.1703C22.25 15.1625 22.25 15.1547 22.25 15.1469C22.25 15.1391 22.25 15.1314 22.25 15.1236C22.25 15.1158 22.25 15.1081 22.25 15.1003C22.25 15.0926 22.25 15.0849 22.25 15.0771C22.25 15.0694 22.25 15.0617 22.25 15.054C22.25 15.0463 22.25 15.0386 22.25 15.0309C22.25 15.0232 22.25 15.0155 22.25 15.0079C22.25 15.0002 22.25 14.9926 22.25 14.9849C22.25 14.9773 22.25 14.9696 22.25 14.962C22.25 14.9544 22.25 14.9467 22.25 14.9391C22.25 14.9315 22.25 14.9239 22.25 14.9163C22.25 14.9087 22.25 14.9012 22.25 14.8936C22.25 14.886 22.25 14.8784 22.25 14.8709C22.25 14.8633 22.25 14.8558 22.25 14.8482C22.25 14.8407 22.25 14.8332 22.25 14.8257C22.25 14.8181 22.25 14.8106 22.25 14.8031C22.25 14.7956 22.25 14.7881 22.25 14.7806C22.25 14.7732 22.25 14.7657 22.25 14.7582C22.25 14.7507 22.25 14.7433 22.25 14.7358C22.25 14.7284 22.25 14.7209 22.25 14.7135C22.25 14.7061 22.25 14.6987 22.25 14.6912C22.25 14.6838 22.25 14.6764 22.25 14.669C22.25 14.6616 22.25 14.6542 22.25 14.6469C22.25 14.6395 22.25 14.6321 22.25 14.6247C22.25 14.6174 22.25 14.61 22.25 14.6027C22.25 14.5953 22.25 14.588 22.25 14.5806C22.25 14.5733 22.25 14.566 22.25 14.5587C22.25 14.5514 22.25 14.544 22.25 14.5367C22.25 14.5294 22.25 14.5222 22.25 14.5149C22.25 14.5076 22.25 14.5003 22.25 14.493C22.25 14.4858 22.25 14.4785 22.25 14.4713C22.25 14.464 22.25 14.4568 22.25 14.4495C22.25 14.4423 22.25 14.4351 22.25 14.4278C22.25 14.4206 22.25 14.4134 22.25 14.4062C22.25 14.399 22.25 14.3918 22.25 14.3846C22.25 14.3774 22.25 14.3702 22.25 14.3631C22.25 14.3559 22.25 14.3487 22.25 14.3416C22.25 14.3344 22.25 14.3272 22.25 14.3201C22.25 14.313 22.25 14.3058 22.25 14.2987C22.25 14.2916 22.25 14.2844 22.25 14.2773C22.25 14.2702 22.25 14.2631 22.25 14.256C22.25 14.2489 22.25 14.2418 22.25 14.2347C22.25 14.2276 22.25 14.2205 22.25 14.2135C22.25 14.2064 22.25 14.1993 22.25 14.1923C22.25 14.1852 22.25 14.1782 22.25 14.1711C22.25 14.1641 22.25 14.157 22.25 14.15C22.25 14.143 22.25 14.1359 22.25 14.1289C22.25 14.1219 22.25 14.1149 22.25 14.1079C22.25 14.1009 22.25 14.0939 22.25 14.0869C22.25 14.0799 22.25 14.0729 22.25 14.066C22.25 14.059 22.25 14.052 22.25 14.045C22.25 14.0381 22.25 14.0311 22.25 14.0242C22.25 14.0172 22.25 14.0103 22.25 14.0033C22.25 13.9964 22.25 13.9895 22.25 13.9825C22.25 13.9756 22.25 13.9687 22.25 13.9618C22.25 13.9549 22.25 13.948 22.25 13.9411C22.25 13.9342 22.25 13.9273 22.25 13.9204C22.25 13.9135 22.25 13.9066 22.25 13.8997C22.25 13.8929 22.25 13.886 22.25 13.8791C22.25 13.8723 22.25 13.8654 22.25 13.8585C22.25 13.8517 22.25 13.8448 22.25 13.838C22.25 13.8312 22.25 13.8243 22.25 13.8175C22.25 13.8107 22.25 13.8039 22.25 13.797C22.25 13.7902 22.25 13.7834 22.25 13.7766C22.25 13.7698 22.25 13.763 22.25 13.7562C22.25 13.7494 22.25 13.7426 22.25 13.7358C22.25 13.7291 22.25 13.7223 22.25 13.7155C22.25 13.7087 22.25 13.702 22.25 13.6952C22.25 13.6884 22.25 13.6817 22.25 13.6749C22.25 13.6682 22.25 13.6614 22.25 13.6547C22.25 13.648 22.25 13.6412 22.25 13.6345C22.25 13.6278 22.25 13.6211 22.25 13.6143C22.25 13.6076 22.25 13.6009 22.25 13.5942C22.25 13.5875 22.25 13.5808 22.25 13.5741C22.25 13.5674 22.25 13.5607 22.25 13.554C22.25 13.5473 22.25 13.5406 22.25 13.534C22.25 13.5273 22.25 13.5206 22.25 13.5139C22.25 13.5073 22.25 13.5006 22.25 13.4939C22.25 13.4873 22.25 13.4806 22.25 13.474C22.25 13.4673 22.25 13.4607 22.25 13.454C22.25 13.4474 22.25 13.4408 22.25 13.4341C22.25 13.4275 22.25 13.4209 22.25 13.4143C22.25 13.4076 22.25 13.401 22.25 13.3944C22.25 13.3878 22.25 13.3812 22.25 13.3746C22.25 13.368 22.25 13.3614 22.25 13.3548C22.25 13.3482 22.25 13.3416 22.25 13.335C22.25 13.3284 22.25 13.3218 22.25 13.3153C22.25 13.3087 22.25 13.3021 22.25 13.2955C22.25 13.289 22.25 13.2824 22.25 13.2758C22.25 13.2693 22.25 13.2627 22.25 13.2562C22.25 13.2496 22.25 13.2431 22.25 13.2365C22.25 13.23 22.25 13.2234 22.25 13.2169C22.25 13.2104 22.25 13.2038 22.25 13.1973C22.25 13.1908 22.25 13.1842 22.25 13.1777C22.25 13.1712 22.25 13.1647 22.25 13.1582C22.25 13.1516 22.25 13.1451 22.25 13.1386C22.25 13.1321 22.25 13.1256 22.25 13.1191C22.25 13.1126 22.25 13.1061 22.25 13.0996C22.25 13.0931 22.25 13.0866 22.25 13.0801C22.25 13.0736 22.25 13.0672 22.25 13.0607C22.25 13.0542 22.25 13.0477 22.25 13.0412C22.25 13.0348 22.25 13.0283 22.25 13.0218C22.25 13.0154 22.25 13.0089 22.25 13.0024C22.25 12.996 22.25 12.9895 22.25 12.9831C22.25 12.9766 22.25 12.9702 22.25 12.9637C22.25 12.9573 22.25 12.9508 22.25 12.9444C22.25 12.9379 22.25 12.9315 22.25 12.925C22.25 12.9186 22.25 12.9122 22.25 12.9057C22.25 12.8993 22.25 12.8929 22.25 12.8865C22.25 12.88 22.25 12.8736 22.25 12.8672C22.25 12.8608 22.25 12.8543 22.25 12.8479C22.25 12.8415 22.25 12.8351 22.25 12.8287C22.25 12.8223 22.25 12.8159 22.25 12.8095C22.25 12.8031 22.25 12.7967 22.25 12.7903C22.25 12.7839 22.25 12.7775 22.25 12.7711C22.25 12.7647 22.25 12.7583 22.25 12.7519C22.25 12.7455 22.25 12.7391 22.25 12.7327C22.25 12.7263 22.25 12.7199 22.25 12.7136C22.25 12.7072 22.25 12.7008 22.25 12.6944C22.25 12.688 22.25 12.6817 22.25 12.6753C22.25 12.6689 22.25 12.6626 22.25 12.6562C22.25 12.6498 22.25 12.6434 22.25 12.6371C22.25 12.6307 22.25 12.6243 22.25 12.618C22.25 12.6116 22.25 12.6053 22.25 12.5989C22.25 12.5925 22.25 12.5862 22.25 12.5798C22.25 12.5735 22.25 12.5671 22.25 12.5608C22.25 12.5544 22.25 12.5481 22.25 12.5417C22.25 12.5354 22.25 12.529 22.25 12.5227C22.25 12.5163 22.25 12.51 22.25 12.5036C22.25 12.4973 22.25 12.491 22.25 12.4846C22.25 12.4783 22.25 12.4719 22.25 12.4656C22.25 12.4593 22.25 12.4529 22.25 12.4466C22.25 12.4403 22.25 12.4339 22.25 12.4276C22.25 12.4213 22.25 12.4149 22.25 12.4086C22.25 12.4023 22.25 12.3959 22.25 12.3896C22.25 12.3833 22.25 12.3769 22.25 12.3706C22.25 12.3643 22.25 12.358 22.25 12.3516C22.25 12.3453 22.25 12.339 22.25 12.3327C22.25 12.3264 22.25 12.32 22.25 12.3137C22.25 12.3074 22.25 12.3011 22.25 12.2947C22.25 12.2884 22.25 12.2821 22.25 12.2758C22.25 12.2695 22.25 12.2632 22.25 12.2568C22.25 12.2505 22.25 12.2442 22.25 12.2379C22.25 12.2316 22.25 12.2253 22.25 12.2189C22.25 12.2126 22.25 12.2063 22.25 12.2C22.25 12.1937 22.25 12.1874 22.25 12.1811C22.25 12.1747 22.25 12.1684 22.25 12.1621C22.25 12.1558 22.25 12.1495 22.25 12.1432C22.25 12.1369 22.25 12.1306 22.25 12.1242C22.25 12.1179 22.25 12.1116 22.25 12.1053C22.25 12.099 22.25 12.0927 22.25 12.0864C22.25 12.0801 22.25 12.0737 22.25 12.0674C22.25 12.0611 22.25 12.0548 22.25 12.0485C22.25 12.0422 22.25 12.0359 22.25 12.0296C22.25 12.0232 22.25 12.0169 22.25 12.0106C22.25 12.0043 22.25 11.998 22.25 11.9917C22.25 11.9854 22.25 11.979 22.25 11.9727C22.25 11.9664 22.25 11.9601 22.25 11.9538C22.25 11.9475 22.25 11.9412 22.25 11.9348C22.25 11.9285 22.25 11.9222 22.25 11.9159C22.25 11.9096 22.25 11.9032 22.25 11.8969C22.25 11.8906 22.25 11.8843 22.25 11.878C22.25 11.8716 22.25 11.8653 22.25 11.859C22.25 11.8527 22.25 11.8464 22.25 11.84C22.25 11.8337 22.25 11.8274 22.25 11.8211C22.25 11.8147 22.25 11.8084 22.25 11.8021C22.25 11.7958 22.25 11.7894 22.25 11.7831C22.25 11.7768 22.25 11.7704 22.25 11.7641C22.25 11.7578 22.25 11.7514 22.25 11.7451C22.25 11.7388 22.25 11.7324 22.25 11.7261C22.25 11.7198 22.25 11.7134 22.25 11.7071C22.25 11.7008 22.25 11.6944 22.25 11.6881C22.25 11.6817 22.25 11.6754 22.25 11.669C22.25 11.6627 22.25 11.6563 22.25 11.65C22.25 11.6437 22.25 11.6373 22.25 11.631C22.25 11.6246 22.25 11.6182 22.25 11.6119C22.25 11.6055 22.25 11.5992 22.25 11.5928C22.25 11.5865 22.25 11.5801 22.25 11.5738C22.25 11.5674 22.25 11.561 22.25 11.5547C22.25 11.5483 22.25 11.5419 22.25 11.5356C22.25 11.5292 22.25 11.5228 22.25 11.5165C22.25 11.5101 22.25 11.5037 22.25 11.4973C22.25 11.491 22.25 11.4846 22.25 11.4782C22.25 11.4718 22.25 11.4654 22.25 11.459C22.25 11.4527 22.25 11.4463 22.25 11.4399C22.25 11.4335 22.25 11.4271 22.25 11.4207C22.25 11.4143 22.25 11.4079 22.25 11.4015C22.25 11.3951 22.25 11.3887 22.25 11.3823C22.25 11.3759 22.25 11.3695 22.25 11.3631C22.25 11.3567 22.25 11.3503 22.25 11.3439C22.25 11.3375 22.25 11.331 22.25 11.3246C22.25 11.3182 22.25 11.3118 22.25 11.3054C22.25 11.2989 22.25 11.2925 22.25 11.2861C22.25 11.2797 22.25 11.2732 22.25 11.2668C22.25 11.2604 22.25 11.2539 22.25 11.2475C22.25 11.241 22.25 11.2346 22.25 11.2281C22.25 11.2217 22.25 11.2152 22.25 11.2088C22.25 11.2023 22.25 11.1959 22.25 11.1894C22.25 11.183 22.25 11.1765 22.25 11.17C22.25 11.1636 22.25 11.1571 22.25 11.1506C22.25 11.1442 22.25 11.1377 22.25 11.1312C22.25 11.1247 22.25 11.1183 22.25 11.1118C22.25 11.1053 22.25 11.0988 22.25 11.0923C22.25 11.0858 22.25 11.0793 22.25 11.0728C22.25 11.0663 22.25 11.0598 22.25 11.0533C22.25 11.0468 22.25 11.0403 22.25 11.0338C22.25 11.0273 22.25 11.0208 22.25 11.0142C22.25 11.0077 22.25 11.0012 22.25 10.9947C22.25 10.9881 22.25 10.9816 22.25 10.9751C22.25 10.9685 22.25 10.962 22.25 10.9555C22.25 10.9489 22.25 10.9424 22.25 10.9358C22.25 10.9293 22.25 10.9227 22.25 10.9162C22.25 10.9096 22.25 10.903 22.25 10.8965C22.25 10.8899 22.25 10.8833 22.25 10.8768C22.25 10.8702 22.25 10.8636 22.25 10.857C22.25 10.8504 22.25 10.8439 22.25 10.8373C22.25 10.8307 22.25 10.8241 22.25 10.8175C22.25 10.8109 22.25 10.8043 22.25 10.7977C22.25 10.7911 22.25 10.7844 22.25 10.7778C22.25 10.7712 22.25 10.7646 22.25 10.758C22.25 10.7513 22.25 10.7447 22.25 10.7381C22.25 10.7314 22.25 10.7248 22.25 10.7181C22.25 10.7115 22.25 10.7048 22.25 10.6982C22.25 10.6915 22.25 10.6849 22.25 10.6782C22.25 10.6715 22.25 10.6649 22.25 10.6582C22.25 10.6515 22.25 10.6449 22.25 10.6382C22.25 10.6315 22.25 10.6248 22.25 10.6181C22.25 10.6114 22.25 10.6047 22.25 10.598C22.25 10.5913 22.25 10.5846 22.25 10.5779C22.25 10.5712 22.25 10.5644 22.25 10.5577C22.25 10.551 22.25 10.5443 22.25 10.5375C22.25 10.5308 22.25 10.5241 22.25 10.5173C22.25 10.5106 22.25 10.5038 22.25 10.4971C22.25 10.4903 22.25 10.4835 22.25 10.4768C22.25 10.47 22.25 10.4632 22.25 10.4565C22.25 10.4497 22.25 10.4429 22.25 10.4361C22.25 10.4293 22.25 10.4225 22.25 10.4157C22.25 10.4089 22.25 10.4021 22.25 10.3953C22.25 10.3885 22.25 10.3817 22.25 10.3749C22.25 10.368 22.25 10.3612 22.25 10.3544C22.25 10.3475 22.25 10.3407 22.25 10.3339C22.25 10.327 22.25 10.3202 22.25 10.3133C22.25 10.3064 22.25 10.2996 22.25 10.2927C22.25 10.2858 22.25 10.279 22.25 10.2721C22.25 10.2652 22.25 10.2583 22.25 10.2514C22.25 10.2445 22.25 10.2376 22.25 10.2307C22.25 10.2238 22.25 10.2169 22.25 10.21C22.25 10.203 22.25 10.1961 22.25 10.1892C22.25 10.1823 22.25 10.1753 22.25 10.1684C22.25 10.1614 22.25 10.1545 22.25 10.1475C22.25 10.1406 22.25 10.1336 22.25 10.1266C22.25 10.1196 22.25 10.1127 22.25 10.1057C22.25 10.0987 22.25 10.0917 22.25 10.0847C22.25 10.0777 22.25 10.0707 22.25 10.0637C22.25 10.0567 22.25 10.0497 22.25 10.0426C22.25 10.0356 22.25 10.0286 22.25 10.0215C22.25 10.0145 22.25 10.0075 22.25 10.0004C22.25 9.99336 22.25 9.9863 22.25 9.97923C22.25 9.97216 22.25 9.96509 22.25 9.95801C22.25 9.95093 22.25 9.94384 22.25 9.93675C22.25 9.92965 22.25 9.92255 22.25 9.91544C22.25 9.90833 22.25 9.90121 22.25 9.89409C22.25 9.88696 22.25 9.87983 22.25 9.87269C22.25 9.86556 22.25 9.85841 22.25 9.85126C22.25 9.8441 22.25 9.83694 22.25 9.82977C22.25 9.82261 22.25 9.81543 22.25 9.80825C22.25 9.80106 22.25 9.79387 22.25 9.78667C22.25 9.77948 22.25 9.77227 22.25 9.76506C22.25 9.75784 22.25 9.75062 22.25 9.74339C22.25 9.73616 22.25 9.72892 22.25 9.72168C22.25 9.71443 22.25 9.70718 22.25 9.69992C22.25 9.69266 22.25 9.68539 22.25 9.67812C22.25 9.67084 22.25 9.66356 22.25 9.65626C22.25 9.64897 22.25 9.64167 22.25 9.63436C22.25 9.62705 22.25 9.61974 22.25 9.61241C22.25 9.60509 22.25 9.59775 22.25 9.59041C22.25 9.58307 22.25 9.57572 22.25 9.56837C22.25 9.56101 22.25 9.55364 22.25 9.54627C22.25 9.53889 22.25 9.53151 22.25 9.52412C22.25 9.51673 22.25 9.50933 22.25 9.50192C22.25 9.49451 22.25 9.4871 22.25 9.47967C22.25 9.47225 22.25 9.46481 22.25 9.45737C22.25 9.44993 22.25 9.44248 22.25 9.43502C22.25 9.42756 22.25 9.42009 22.25 9.41262C22.25 9.40514 22.25 9.39765 22.25 9.39016C22.25 9.38267 22.25 9.37516 22.25 9.36765C22.25 9.36014 22.25 9.35262 22.25 9.34509C22.25 9.33756 22.25 9.33002 22.25 9.32247C22.25 9.31493 22.25 9.30737 22.25 9.2998C22.25 9.29224 22.25 9.28466 22.25 9.27708C22.25 9.26949 22.25 9.2619 22.25 9.2543C22.25 9.2467 22.25 9.23909 22.25 9.23147C22.25 9.22384 22.25 9.21621 22.25 9.20858C22.25 9.20094 22.25 9.19329 22.25 9.18563C22.25 9.17797 22.25 9.1703 22.25 9.16263C22.25 9.15495 22.25 9.14726 22.25 9.13957C22.25 9.13187 22.25 9.12417 22.25 9.11645C22.25 9.10874 22.25 9.10101 22.25 9.09328C22.25 9.08554 22.25 9.0778 22.25 9.07005C22.25 9.06229 22.25 9.05453 22.25 9.04676C22.25 9.03898 22.25 9.0312 22.25 9.02341C22.25 9.01562 22.25 9.00781 22.25 9H20.75C20.75 9.00781 20.75 9.01562 20.75 9.02341C20.75 9.0312 20.75 9.03898 20.75 9.04676C20.75 9.05453 20.75 9.06229 20.75 9.07005C20.75 9.0778 20.75 9.08554 20.75 9.09328C20.75 9.10101 20.75 9.10874 20.75 9.11645C20.75 9.12417 20.75 9.13187 20.75 9.13957C20.75 9.14726 20.75 9.15495 20.75 9.16263C20.75 9.1703 20.75 9.17797 20.75 9.18563C20.75 9.19329 20.75 9.20094 20.75 9.20858C20.75 9.21621 20.75 9.22384 20.75 9.23147C20.75 9.23909 20.75 9.2467 20.75 9.2543C20.75 9.2619 20.75 9.26949 20.75 9.27708C20.75 9.28466 20.75 9.29224 20.75 9.2998C20.75 9.30737 20.75 9.31493 20.75 9.32247C20.75 9.33002 20.75 9.33756 20.75 9.34509C20.75 9.35262 20.75 9.36014 20.75 9.36765C20.75 9.37516 20.75 9.38267 20.75 9.39016C20.75 9.39765 20.75 9.40514 20.75 9.41262C20.75 9.42009 20.75 9.42756 20.75 9.43502C20.75 9.44248 20.75 9.44993 20.75 9.45737C20.75 9.46481 20.75 9.47225 20.75 9.47967C20.75 9.4871 20.75 9.49451 20.75 9.50192C20.75 9.50933 20.75 9.51673 20.75 9.52412C20.75 9.53151 20.75 9.53889 20.75 9.54627C20.75 9.55364 20.75 9.56101 20.75 9.56837C20.75 9.57572 20.75 9.58307 20.75 9.59041C20.75 9.59775 20.75 9.60509 20.75 9.61241C20.75 9.61974 20.75 9.62705 20.75 9.63436C20.75 9.64167 20.75 9.64897 20.75 9.65626C20.75 9.66356 20.75 9.67084 20.75 9.67812C20.75 9.68539 20.75 9.69266 20.75 9.69992C20.75 9.70718 20.75 9.71443 20.75 9.72168C20.75 9.72892 20.75 9.73616 20.75 9.74339C20.75 9.75062 20.75 9.75784 20.75 9.76506C20.75 9.77227 20.75 9.77948 20.75 9.78667C20.75 9.79387 20.75 9.80106 20.75 9.80825C20.75 9.81543 20.75 9.82261 20.75 9.82977C20.75 9.83694 20.75 9.8441 20.75 9.85126C20.75 9.85841 20.75 9.86556 20.75 9.87269C20.75 9.87983 20.75 9.88696 20.75 9.89409C20.75 9.90121 20.75 9.90833 20.75 9.91544C20.75 9.92255 20.75 9.92965 20.75 9.93675C20.75 9.94384 20.75 9.95093 20.75 9.95801C20.75 9.96509 20.75 9.97216 20.75 9.97923C20.75 9.9863 20.75 9.99336 20.75 10.0004C20.75 10.0075 20.75 10.0145 20.75 10.0215C20.75 10.0286 20.75 10.0356 20.75 10.0426C20.75 10.0497 20.75 10.0567 20.75 10.0637C20.75 10.0707 20.75 10.0777 20.75 10.0847C20.75 10.0917 20.75 10.0987 20.75 10.1057C20.75 10.1127 20.75 10.1196 20.75 10.1266C20.75 10.1336 20.75 10.1406 20.75 10.1475C20.75 10.1545 20.75 10.1614 20.75 10.1684C20.75 10.1753 20.75 10.1823 20.75 10.1892C20.75 10.1961 20.75 10.203 20.75 10.21C20.75 10.2169 20.75 10.2238 20.75 10.2307C20.75 10.2376 20.75 10.2445 20.75 10.2514C20.75 10.2583 20.75 10.2652 20.75 10.2721C20.75 10.279 20.75 10.2858 20.75 10.2927C20.75 10.2996 20.75 10.3064 20.75 10.3133C20.75 10.3202 20.75 10.327 20.75 10.3339C20.75 10.3407 20.75 10.3475 20.75 10.3544C20.75 10.3612 20.75 10.368 20.75 10.3749C20.75 10.3817 20.75 10.3885 20.75 10.3953C20.75 10.4021 20.75 10.4089 20.75 10.4157C20.75 10.4225 20.75 10.4293 20.75 10.4361C20.75 10.4429 20.75 10.4497 20.75 10.4565C20.75 10.4632 20.75 10.47 20.75 10.4768C20.75 10.4835 20.75 10.4903 20.75 10.4971C20.75 10.5038 20.75 10.5106 20.75 10.5173C20.75 10.5241 20.75 10.5308 20.75 10.5375C20.75 10.5443 20.75 10.551 20.75 10.5577C20.75 10.5644 20.75 10.5712 20.75 10.5779C20.75 10.5846 20.75 10.5913 20.75 10.598C20.75 10.6047 20.75 10.6114 20.75 10.6181C20.75 10.6248 20.75 10.6315 20.75 10.6382C20.75 10.6449 20.75 10.6515 20.75 10.6582C20.75 10.6649 20.75 10.6715 20.75 10.6782C20.75 10.6849 20.75 10.6915 20.75 10.6982C20.75 10.7048 20.75 10.7115 20.75 10.7181C20.75 10.7248 20.75 10.7314 20.75 10.7381C20.75 10.7447 20.75 10.7513 20.75 10.758C20.75 10.7646 20.75 10.7712 20.75 10.7778C20.75 10.7844 20.75 10.7911 20.75 10.7977C20.75 10.8043 20.75 10.8109 20.75 10.8175C20.75 10.8241 20.75 10.8307 20.75 10.8373C20.75 10.8439 20.75 10.8504 20.75 10.857C20.75 10.8636 20.75 10.8702 20.75 10.8768C20.75 10.8833 20.75 10.8899 20.75 10.8965C20.75 10.903 20.75 10.9096 20.75 10.9162C20.75 10.9227 20.75 10.9293 20.75 10.9358C20.75 10.9424 20.75 10.9489 20.75 10.9555C20.75 10.962 20.75 10.9685 20.75 10.9751C20.75 10.9816 20.75 10.9881 20.75 10.9947C20.75 11.0012 20.75 11.0077 20.75 11.0142C20.75 11.0208 20.75 11.0273 20.75 11.0338C20.75 11.0403 20.75 11.0468 20.75 11.0533C20.75 11.0598 20.75 11.0663 20.75 11.0728C20.75 11.0793 20.75 11.0858 20.75 11.0923C20.75 11.0988 20.75 11.1053 20.75 11.1118C20.75 11.1183 20.75 11.1247 20.75 11.1312C20.75 11.1377 20.75 11.1442 20.75 11.1506C20.75 11.1571 20.75 11.1636 20.75 11.17C20.75 11.1765 20.75 11.183 20.75 11.1894C20.75 11.1959 20.75 11.2023 20.75 11.2088C20.75 11.2152 20.75 11.2217 20.75 11.2281C20.75 11.2346 20.75 11.241 20.75 11.2475C20.75 11.2539 20.75 11.2604 20.75 11.2668C20.75 11.2732 20.75 11.2797 20.75 11.2861C20.75 11.2925 20.75 11.2989 20.75 11.3054C20.75 11.3118 20.75 11.3182 20.75 11.3246C20.75 11.331 20.75 11.3375 20.75 11.3439C20.75 11.3503 20.75 11.3567 20.75 11.3631C20.75 11.3695 20.75 11.3759 20.75 11.3823C20.75 11.3887 20.75 11.3951 20.75 11.4015C20.75 11.4079 20.75 11.4143 20.75 11.4207C20.75 11.4271 20.75 11.4335 20.75 11.4399C20.75 11.4463 20.75 11.4527 20.75 11.459C20.75 11.4654 20.75 11.4718 20.75 11.4782C20.75 11.4846 20.75 11.491 20.75 11.4973C20.75 11.5037 20.75 11.5101 20.75 11.5165C20.75 11.5228 20.75 11.5292 20.75 11.5356C20.75 11.5419 20.75 11.5483 20.75 11.5547C20.75 11.561 20.75 11.5674 20.75 11.5738C20.75 11.5801 20.75 11.5865 20.75 11.5928C20.75 11.5992 20.75 11.6055 20.75 11.6119C20.75 11.6182 20.75 11.6246 20.75 11.631C20.75 11.6373 20.75 11.6437 20.75 11.65C20.75 11.6563 20.75 11.6627 20.75 11.669C20.75 11.6754 20.75 11.6817 20.75 11.6881C20.75 11.6944 20.75 11.7008 20.75 11.7071C20.75 11.7134 20.75 11.7198 20.75 11.7261C20.75 11.7324 20.75 11.7388 20.75 11.7451C20.75 11.7514 20.75 11.7578 20.75 11.7641C20.75 11.7704 20.75 11.7768 20.75 11.7831C20.75 11.7894 20.75 11.7958 20.75 11.8021C20.75 11.8084 20.75 11.8147 20.75 11.8211C20.75 11.8274 20.75 11.8337 20.75 11.84C20.75 11.8464 20.75 11.8527 20.75 11.859C20.75 11.8653 20.75 11.8716 20.75 11.878C20.75 11.8843 20.75 11.8906 20.75 11.8969C20.75 11.9032 20.75 11.9096 20.75 11.9159C20.75 11.9222 20.75 11.9285 20.75 11.9348C20.75 11.9412 20.75 11.9475 20.75 11.9538C20.75 11.9601 20.75 11.9664 20.75 11.9727C20.75 11.979 20.75 11.9854 20.75 11.9917C20.75 11.998 20.75 12.0043 20.75 12.0106C20.75 12.0169 20.75 12.0232 20.75 12.0296C20.75 12.0359 20.75 12.0422 20.75 12.0485C20.75 12.0548 20.75 12.0611 20.75 12.0674C20.75 12.0737 20.75 12.0801 20.75 12.0864C20.75 12.0927 20.75 12.099 20.75 12.1053C20.75 12.1116 20.75 12.1179 20.75 12.1242C20.75 12.1306 20.75 12.1369 20.75 12.1432C20.75 12.1495 20.75 12.1558 20.75 12.1621C20.75 12.1684 20.75 12.1747 20.75 12.1811C20.75 12.1874 20.75 12.1937 20.75 12.2C20.75 12.2063 20.75 12.2126 20.75 12.2189C20.75 12.2253 20.75 12.2316 20.75 12.2379C20.75 12.2442 20.75 12.2505 20.75 12.2568C20.75 12.2632 20.75 12.2695 20.75 12.2758C20.75 12.2821 20.75 12.2884 20.75 12.2947C20.75 12.3011 20.75 12.3074 20.75 12.3137C20.75 12.32 20.75 12.3264 20.75 12.3327C20.75 12.339 20.75 12.3453 20.75 12.3516C20.75 12.358 20.75 12.3643 20.75 12.3706C20.75 12.3769 20.75 12.3833 20.75 12.3896C20.75 12.3959 20.75 12.4023 20.75 12.4086C20.75 12.4149 20.75 12.4213 20.75 12.4276C20.75 12.4339 20.75 12.4403 20.75 12.4466C20.75 12.4529 20.75 12.4593 20.75 12.4656C20.75 12.4719 20.75 12.4783 20.75 12.4846C20.75 12.491 20.75 12.4973 20.75 12.5036C20.75 12.51 20.75 12.5163 20.75 12.5227C20.75 12.529 20.75 12.5354 20.75 12.5417C20.75 12.5481 20.75 12.5544 20.75 12.5608C20.75 12.5671 20.75 12.5735 20.75 12.5798C20.75 12.5862 20.75 12.5925 20.75 12.5989C20.75 12.6053 20.75 12.6116 20.75 12.618C20.75 12.6243 20.75 12.6307 20.75 12.6371C20.75 12.6434 20.75 12.6498 20.75 12.6562C20.75 12.6626 20.75 12.6689 20.75 12.6753C20.75 12.6817 20.75 12.688 20.75 12.6944C20.75 12.7008 20.75 12.7072 20.75 12.7136C20.75 12.7199 20.75 12.7263 20.75 12.7327C20.75 12.7391 20.75 12.7455 20.75 12.7519C20.75 12.7583 20.75 12.7647 20.75 12.7711C20.75 12.7775 20.75 12.7839 20.75 12.7903C20.75 12.7967 20.75 12.8031 20.75 12.8095C20.75 12.8159 20.75 12.8223 20.75 12.8287C20.75 12.8351 20.75 12.8415 20.75 12.8479C20.75 12.8543 20.75 12.8608 20.75 12.8672C20.75 12.8736 20.75 12.88 20.75 12.8865C20.75 12.8929 20.75 12.8993 20.75 12.9057C20.75 12.9122 20.75 12.9186 20.75 12.925C20.75 12.9315 20.75 12.9379 20.75 12.9444C20.75 12.9508 20.75 12.9573 20.75 12.9637C20.75 12.9702 20.75 12.9766 20.75 12.9831C20.75 12.9895 20.75 12.996 20.75 13.0024C20.75 13.0089 20.75 13.0154 20.75 13.0218C20.75 13.0283 20.75 13.0348 20.75 13.0412C20.75 13.0477 20.75 13.0542 20.75 13.0607C20.75 13.0672 20.75 13.0736 20.75 13.0801C20.75 13.0866 20.75 13.0931 20.75 13.0996C20.75 13.1061 20.75 13.1126 20.75 13.1191C20.75 13.1256 20.75 13.1321 20.75 13.1386C20.75 13.1451 20.75 13.1516 20.75 13.1582C20.75 13.1647 20.75 13.1712 20.75 13.1777C20.75 13.1842 20.75 13.1908 20.75 13.1973C20.75 13.2038 20.75 13.2104 20.75 13.2169C20.75 13.2234 20.75 13.23 20.75 13.2365C20.75 13.2431 20.75 13.2496 20.75 13.2562C20.75 13.2627 20.75 13.2693 20.75 13.2758C20.75 13.2824 20.75 13.289 20.75 13.2955C20.75 13.3021 20.75 13.3087 20.75 13.3153C20.75 13.3218 20.75 13.3284 20.75 13.335C20.75 13.3416 20.75 13.3482 20.75 13.3548C20.75 13.3614 20.75 13.368 20.75 13.3746C20.75 13.3812 20.75 13.3878 20.75 13.3944C20.75 13.401 20.75 13.4076 20.75 13.4143C20.75 13.4209 20.75 13.4275 20.75 13.4341C20.75 13.4408 20.75 13.4474 20.75 13.454C20.75 13.4607 20.75 13.4673 20.75 13.474C20.75 13.4806 20.75 13.4873 20.75 13.4939C20.75 13.5006 20.75 13.5073 20.75 13.5139C20.75 13.5206 20.75 13.5273 20.75 13.534C20.75 13.5406 20.75 13.5473 20.75 13.554C20.75 13.5607 20.75 13.5674 20.75 13.5741C20.75 13.5808 20.75 13.5875 20.75 13.5942C20.75 13.6009 20.75 13.6076 20.75 13.6143C20.75 13.6211 20.75 13.6278 20.75 13.6345C20.75 13.6412 20.75 13.648 20.75 13.6547C20.75 13.6614 20.75 13.6682 20.75 13.6749C20.75 13.6817 20.75 13.6884 20.75 13.6952C20.75 13.702 20.75 13.7087 20.75 13.7155C20.75 13.7223 20.75 13.7291 20.75 13.7358C20.75 13.7426 20.75 13.7494 20.75 13.7562C20.75 13.763 20.75 13.7698 20.75 13.7766C20.75 13.7834 20.75 13.7902 20.75 13.797C20.75 13.8039 20.75 13.8107 20.75 13.8175C20.75 13.8243 20.75 13.8312 20.75 13.838C20.75 13.8448 20.75 13.8517 20.75 13.8585C20.75 13.8654 20.75 13.8723 20.75 13.8791C20.75 13.886 20.75 13.8929 20.75 13.8997C20.75 13.9066 20.75 13.9135 20.75 13.9204C20.75 13.9273 20.75 13.9342 20.75 13.9411C20.75 13.948 20.75 13.9549 20.75 13.9618C20.75 13.9687 20.75 13.9756 20.75 13.9825C20.75 13.9895 20.75 13.9964 20.75 14.0033C20.75 14.0103 20.75 14.0172 20.75 14.0242C20.75 14.0311 20.75 14.0381 20.75 14.045C20.75 14.052 20.75 14.059 20.75 14.066C20.75 14.0729 20.75 14.0799 20.75 14.0869C20.75 14.0939 20.75 14.1009 20.75 14.1079C20.75 14.1149 20.75 14.1219 20.75 14.1289C20.75 14.1359 20.75 14.143 20.75 14.15C20.75 14.157 20.75 14.1641 20.75 14.1711C20.75 14.1782 20.75 14.1852 20.75 14.1923C20.75 14.1993 20.75 14.2064 20.75 14.2135C20.75 14.2205 20.75 14.2276 20.75 14.2347C20.75 14.2418 20.75 14.2489 20.75 14.256C20.75 14.2631 20.75 14.2702 20.75 14.2773C20.75 14.2844 20.75 14.2916 20.75 14.2987C20.75 14.3058 20.75 14.313 20.75 14.3201C20.75 14.3272 20.75 14.3344 20.75 14.3416C20.75 14.3487 20.75 14.3559 20.75 14.3631C20.75 14.3702 20.75 14.3774 20.75 14.3846C20.75 14.3918 20.75 14.399 20.75 14.4062C20.75 14.4134 20.75 14.4206 20.75 14.4278C20.75 14.4351 20.75 14.4423 20.75 14.4495C20.75 14.4568 20.75 14.464 20.75 14.4713C20.75 14.4785 20.75 14.4858 20.75 14.493C20.75 14.5003 20.75 14.5076 20.75 14.5149C20.75 14.5222 20.75 14.5294 20.75 14.5367C20.75 14.544 20.75 14.5514 20.75 14.5587C20.75 14.566 20.75 14.5733 20.75 14.5806C20.75 14.588 20.75 14.5953 20.75 14.6027C20.75 14.61 20.75 14.6174 20.75 14.6247C20.75 14.6321 20.75 14.6395 20.75 14.6469C20.75 14.6542 20.75 14.6616 20.75 14.669C20.75 14.6764 20.75 14.6838 20.75 14.6912C20.75 14.6987 20.75 14.7061 20.75 14.7135C20.75 14.7209 20.75 14.7284 20.75 14.7358C20.75 14.7433 20.75 14.7507 20.75 14.7582C20.75 14.7657 20.75 14.7732 20.75 14.7806C20.75 14.7881 20.75 14.7956 20.75 14.8031C20.75 14.8106 20.75 14.8181 20.75 14.8257C20.75 14.8332 20.75 14.8407 20.75 14.8482C20.75 14.8558 20.75 14.8633 20.75 14.8709C20.75 14.8784 20.75 14.886 20.75 14.8936C20.75 14.9012 20.75 14.9087 20.75 14.9163C20.75 14.9239 20.75 14.9315 20.75 14.9391C20.75 14.9467 20.75 14.9544 20.75 14.962C20.75 14.9696 20.75 14.9773 20.75 14.9849C20.75 14.9926 20.75 15.0002 20.75 15.0079C20.75 15.0155 20.75 15.0232 20.75 15.0309C20.75 15.0386 20.75 15.0463 20.75 15.054C20.75 15.0617 20.75 15.0694 20.75 15.0771C20.75 15.0849 20.75 15.0926 20.75 15.1003C20.75 15.1081 20.75 15.1158 20.75 15.1236C20.75 15.1314 20.75 15.1391 20.75 15.1469C20.75 15.1547 20.75 15.1625 20.75 15.1703C20.75 15.1781 20.75 15.1859 20.75 15.1937C20.75 15.2015 20.75 15.2094 20.75 15.2172C20.75 15.2251 20.75 15.2329 20.75 15.2408C20.75 15.2486 20.75 15.2565 20.75 15.2644C20.75 15.2723 20.75 15.2802 20.75 15.2881C20.75 15.296 20.75 15.3039 20.75 15.3118C20.75 15.3197 20.75 15.3277 20.75 15.3356C20.75 15.3435 20.75 15.3515 20.75 15.3595C20.75 15.3674 20.75 15.3754 20.75 15.3834C20.75 15.3914 20.75 15.3994 20.75 15.4074C20.75 15.4154 20.75 15.4234 20.75 15.4314C20.75 15.4394 20.75 15.4475 20.75 15.4555C20.75 15.4636 20.75 15.4716 20.75 15.4797C20.75 15.4878 20.75 15.4959 20.75 15.5039C20.75 15.512 20.75 15.5201 20.75 15.5283C20.75 15.5364 20.75 15.5445 20.75 15.5526C20.75 15.5608 20.75 15.5689 20.75 15.5771C20.75 15.5852 20.75 15.5934 20.75 15.6016C20.75 15.6097 20.75 15.6179 20.75 15.6261C20.75 15.6343 20.75 15.6425 20.75 15.6508C20.75 15.659 20.75 15.6672 20.75 15.6755C20.75 15.6837 20.75 15.692 20.75 15.7002C20.75 15.7085 20.75 15.7168 20.75 15.7251C20.75 15.7334 20.75 15.7417 20.75 15.75C20.75 15.7583 20.75 15.7666 20.75 15.775C20.75 15.7833 20.75 15.7916 20.75 15.8C20.75 15.8084 20.75 15.8167 20.75 15.8251C20.75 15.8335 20.75 15.8419 20.75 15.8503C20.75 15.8587 20.75 15.8671 20.75 15.8756C20.75 15.884 20.75 15.8924 20.75 15.9009C20.75 15.9093 20.75 15.9178 20.75 15.9263C20.75 15.9348 20.75 15.9433 20.75 15.9518C20.75 15.9603 20.75 15.9688 20.75 15.9773C20.75 15.9858 20.75 15.9944 20.75 16.0029C20.75 16.0115 20.75 16.02 20.75 16.0286C20.75 16.0372 20.75 16.0457 20.75 16.0543C20.75 16.0629 20.75 16.0716 20.75 16.0802C20.75 16.0888 20.75 16.0974 20.75 16.1061C20.75 16.1147 20.75 16.1234 20.75 16.1321C20.75 16.1407 20.75 16.1494 20.75 16.1581C20.75 16.1668 20.75 16.1755 20.75 16.1842C20.75 16.193 20.75 16.2017 20.75 16.2105C20.75 16.2192 20.75 16.228 20.75 16.2367C20.75 16.2455 20.75 16.2543 20.75 16.2631C20.75 16.2719 20.75 16.2807 20.75 16.2895C20.75 16.2983 20.75 16.3072 20.75 16.316C20.75 16.3249 20.75 16.3337 20.75 16.3426C20.75 16.3515 20.75 16.3604 20.75 16.3693C20.75 16.3782 20.75 16.3871 20.75 16.396C20.75 16.405 20.75 16.4139 20.75 16.4229C20.75 16.4318 20.75 16.4408 20.75 16.4498C20.75 16.4587 20.75 16.4677 20.75 16.4767C20.75 16.4857 20.75 16.4948 20.75 16.5038C20.75 16.5128 20.75 16.5219 20.75 16.5309C20.75 16.54 20.75 16.5491 20.75 16.5582C20.75 16.5672 20.75 16.5763 20.75 16.5855C20.75 16.5946 20.75 16.6037 20.75 16.6128C20.75 16.622 20.75 16.6311 20.75 16.6403C20.75 16.6495 20.75 16.6587 20.75 16.6679C20.75 16.677 20.75 16.6863 20.75 16.6955C20.75 16.7047 20.75 16.7139 20.75 16.7232C20.75 16.7324 20.75 16.7417 20.75 16.751C20.75 16.7603 20.75 16.7696 20.75 16.7789C20.75 16.7882 20.75 16.7975 20.75 16.8068C20.75 16.8162 20.75 16.8255 20.75 16.8349C20.75 16.8442 20.75 16.8536 20.75 16.863C20.75 16.8724 20.75 16.8818 20.75 16.8912C20.75 16.9007 20.75 16.9101 20.75 16.9195C20.75 16.929 20.75 16.9384 20.75 16.9479C20.75 16.9574 20.75 16.9669 20.75 16.9764C20.75 16.9859 20.75 16.9954 20.75 17.005C20.75 17.0145 20.75 17.024 20.75 17.0336C20.75 17.0432 20.75 17.0528 20.75 17.0624C20.75 17.0719 20.75 17.0816 20.75 17.0912C20.75 17.1008 20.75 17.1104 20.75 17.1201C20.75 17.1297 20.75 17.1394 20.75 17.1491C20.75 17.1588 20.75 17.1685 20.75 17.1782C20.75 17.1879 20.75 17.1976 20.75 17.2074C20.75 17.2171 20.75 17.2269 20.75 17.2366C20.75 17.2464 20.75 17.2562 20.75 17.266C20.75 17.2758 20.75 17.2856 20.75 17.2955C20.75 17.3053 20.75 17.3151 20.75 17.325C20.75 17.3349 20.75 17.3447 20.75 17.3546C20.75 17.3645 20.75 17.3744 20.75 17.3844C20.75 17.3943 20.75 17.4042 20.75 17.4142C20.75 17.4241 20.75 17.4341 20.75 17.4441C20.75 17.4541 20.75 17.4641 20.75 17.4741C20.75 17.4841 20.75 17.4942 20.75 17.5042C20.75 17.5142 20.75 17.5243 20.75 17.5344C20.75 17.5445 20.75 17.5546 20.75 17.5647C20.75 17.5748 20.75 17.5849 20.75 17.5951C20.75 17.6052 20.75 17.6154 20.75 17.6255C20.75 17.6357 20.75 17.6459 20.75 17.6561C20.75 17.6663 20.75 17.6765 20.75 17.6868C20.75 17.697 20.75 17.7073 20.75 17.7175C20.75 17.7278 20.75 17.7381 20.75 17.7484C20.75 17.7587 20.75 17.769 20.75 17.7794C20.75 17.7897 20.75 17.8001 20.75 17.8104C20.75 17.8208 20.75 17.8312 20.75 17.8416C20.75 17.852 20.75 17.8624 20.75 17.8728C20.75 17.8833 20.75 17.8937 20.75 17.9042C20.75 17.9146 20.75 17.9251 20.75 17.9356C20.75 17.9461 20.75 17.9566 20.75 17.9672C20.75 17.9777 20.75 17.9883 20.75 17.9988C20.75 18.0094 20.75 18.02 20.75 18.0306C20.75 18.0412 20.75 18.0518 20.75 18.0624C20.75 18.0731 20.75 18.0837 20.75 18.0944C20.75 18.105 20.75 18.1157 20.75 18.1264C20.75 18.1371 20.75 18.1479 20.75 18.1586C20.75 18.1693 20.75 18.1801 20.75 18.1908C20.75 18.2016 20.75 18.2124 20.75 18.2232C20.75 18.234 20.75 18.2448 20.75 18.2557C20.75 18.2665 20.75 18.2774 20.75 18.2882C20.75 18.2991 20.75 18.31 20.75 18.3209C20.75 18.3318 20.75 18.3427 20.75 18.3537C20.75 18.3646 20.75 18.3756 20.75 18.3865C20.75 18.3975 20.75 18.4085 20.75 18.4195C20.75 18.4305 20.75 18.4416 20.75 18.4526C20.75 18.4637 20.75 18.4747 20.75 18.4858C20.75 18.4969 20.75 18.508 20.75 18.5191C20.75 18.5302 20.75 18.5414 20.75 18.5525C20.75 18.5637 20.75 18.5748 20.75 18.586C20.75 18.5972 20.75 18.6084 20.75 18.6197C20.75 18.6309 20.75 18.6421 20.75 18.6534C20.75 18.6646 20.75 18.6759 20.75 18.6872C20.75 18.6985 20.75 18.7098 20.75 18.7212C20.75 18.7325 20.75 18.7438 20.75 18.7552C20.75 18.7666 20.75 18.778 20.75 18.7894C20.75 18.8008 20.75 18.8122 20.75 18.8236C20.75 18.8351 20.75 18.8466 20.75 18.858C20.75 18.8695 20.75 18.881 20.75 18.8925C20.75 18.904 20.75 18.9156 20.75 18.9271C20.75 18.9387 20.75 18.9503 20.75 18.9618C20.75 18.9734 20.75 18.985 20.75 18.9967C20.75 19.0083 20.75 19.0199 20.75 19.0316C20.75 19.0433 20.75 19.055 20.75 19.0667C20.75 19.0784 20.75 19.0901 20.75 19.1018C20.75 19.1136 20.75 19.1253 20.75 19.1371C20.75 19.1489 20.75 19.1607 20.75 19.1725C20.75 19.1843 20.75 19.1961 20.75 19.208C20.75 19.2198 20.75 19.2317 20.75 19.2436C20.75 19.2555 20.75 19.2674 20.75 19.2793C20.75 19.2913 20.75 19.3032 20.75 19.3152C20.75 19.3272 20.75 19.3392 20.75 19.3512C20.75 19.3632 20.75 19.3752 20.75 19.3872C20.75 19.3993 20.75 19.4114 20.75 19.4234C20.75 19.4355 20.75 19.4476 20.75 19.4598C20.75 19.4719 20.75 19.484 20.75 19.4962C20.75 19.5083 20.75 19.5205 20.75 19.5327C20.75 19.5449 20.75 19.5572 20.75 19.5694C20.75 19.5816 20.75 19.5939 20.75 19.6062C20.75 19.6185 20.75 19.6308 20.75 19.6431C20.75 19.6554 20.75 19.6677 20.75 19.6801C20.75 19.6925 20.75 19.7048 20.75 19.7172C20.75 19.7296 20.75 19.7421 20.75 19.7545C20.75 19.7669 20.75 19.7794 20.75 19.7919C20.75 19.8044 20.75 19.8169 20.75 19.8294C20.75 19.8419 20.75 19.8545 20.75 19.867C20.75 19.8796 20.75 19.8922 20.75 19.9048C20.75 19.9174 20.75 19.93 20.75 19.9426C20.75 19.9553 20.75 19.9679 20.75 19.9806C20.75 19.9933 20.75 20.006 20.75 20.0187C20.75 20.0314 20.75 20.0442 20.75 20.057C20.75 20.0697 20.75 20.0825 20.75 20.0953C20.75 20.1081 20.75 20.121 20.75 20.1338C20.75 20.1466 20.75 20.1595 20.75 20.1724C20.75 20.1853 20.75 20.1982 20.75 20.2111C20.75 20.2241 20.75 20.237 20.75 20.25C20.75 20.263 20.75 20.276 20.75 20.289C20.75 20.302 20.75 20.315 20.75 20.3281C20.75 20.3411 20.75 20.3542 20.75 20.3673C20.75 20.3804 20.75 20.3935 20.75 20.4067C20.75 20.4198 20.75 20.433 20.75 20.4462C20.75 20.4593 20.75 20.4725 20.75 20.4858C20.75 20.499 20.75 20.5122 20.75 20.5255C20.75 20.5388 20.75 20.5521 20.75 20.5654C20.75 20.5787 20.75 20.592 20.75 20.6054C20.75 20.6187 20.75 20.6321 20.75 20.6455C20.75 20.6589 20.75 20.6723 20.75 20.6858C20.75 20.6992 20.75 20.7127 20.75 20.7262C20.75 20.7396 20.75 20.7531 20.75 20.7667C20.75 20.7802 20.75 20.7937 20.75 20.8073C20.75 20.8209 20.75 20.8345 20.75 20.8481C20.75 20.8617 20.75 20.8753 20.75 20.889C20.75 20.9027 20.75 20.9163 20.75 20.93C20.75 20.9437 20.75 20.9575 20.75 20.9712C20.75 20.985 20.75 20.9987 20.75 21.0125C20.75 21.0263 20.75 21.0401 20.75 21.054C20.75 21.0678 20.75 21.0816 20.75 21.0955C20.75 21.1094 20.75 21.1233 20.75 21.1372C20.75 21.1512 20.75 21.1651 20.75 21.1791C20.75 21.193 20.75 21.207 20.75 21.221C20.75 21.2351 20.75 21.2491 20.75 21.2632C20.75 21.2772 20.75 21.2913 20.75 21.3054C20.75 21.3195 20.75 21.3336 20.75 21.3478C20.75 21.3619 20.75 21.3761 20.75 21.3903C20.75 21.4045 20.75 21.4187 20.75 21.4329C20.75 21.4472 20.75 21.4614 20.75 21.4757C20.75 21.49 20.75 21.5043 20.75 21.5187C20.75 21.533 20.75 21.5473 20.75 21.5617C20.75 21.5761 20.75 21.5905 20.75 21.6049C20.75 21.6193 20.75 21.6338 20.75 21.6483C20.75 21.6627 20.75 21.6772 20.75 21.6917C20.75 21.7063 20.75 21.7208 20.75 21.7354C20.75 21.7499 20.75 21.7645 20.75 21.7791C20.75 21.7937 20.75 21.8084 20.75 21.823C20.75 21.8377 20.75 21.8523 20.75 21.867C20.75 21.8817 20.75 21.8965 20.75 21.9112C20.75 21.926 20.75 21.9407 20.75 21.9555C20.75 21.9703 20.75 21.9852 20.75 22H22.25ZM22.25 9C22.25 4.50518 17.8287 0.25 12 0.25L12 1.75C17.1713 1.75 20.75 5.49482 20.75 9H22.25ZM12 0.25C5.78439 0.25 0.806873 3.39386 0.253722 8.92537L1.74628 9.07463C2.19313 4.60614 6.21561 1.75 12 1.75L12 0.25ZM0.25 9V22H1.75V9H0.25ZM0.251661 22.0499C0.338554 23.3533 0.603101 25.0067 1.62596 26.541C2.65986 28.0919 4.40957 29.4345 7.30266 30.2236L7.69734 28.7764C5.09043 28.0655 3.67347 26.9081 2.87404 25.709C2.06357 24.4933 1.82811 23.1467 1.74834 21.9501L0.251661 22.0499ZM6.75 29.5V67H8.25V29.5H6.75ZM6.76456 67.1471C6.98348 68.2417 8.15863 70.25 11 70.25L11 68.75C9.04137 68.75 8.34985 67.425 8.23544 66.8529L6.76456 67.1471ZM11 70.25C12.4034 70.25 13.3453 69.7509 13.9971 69.0885C14.5931 68.4829 14.9544 67.7005 15.1431 67.3859L13.8569 66.6141C13.5456 67.1328 13.3569 67.6005 12.9279 68.0365C12.5547 68.4157 11.9966 68.75 11 68.75L11 70.25ZM15.25 67V34H13.75V67H15.25Z" fill="#483F32"/>
<path d="M32.75 2V1.25H31.25V2H32.75ZM32 22H31.25V22.025L31.2516 22.0499L32 22ZM35.5 29.5H36.25V29.114L35.9359 28.8897L35.5 29.5ZM35.5 67H34.75C34.75 67.0941 34.7677 67.1873 34.8021 67.2748L35.5 67ZM42.5 67L43.1978 67.2748C43.2323 67.1873 43.25 67.0941 43.25 67H42.5ZM43.25 34V33.25H41.75V34H43.25ZM47.25 2V1.25H45.75V2H47.25ZM39.8373 28.7679L39.1051 28.9306L39.4305 30.3948L40.1627 30.2321L39.8373 28.7679ZM42.75 2V1.25H41.25V2H42.75ZM41.25 20C41.25 20.4142 41.5858 20.75 42 20.75C42.4142 20.75 42.75 20.4142 42.75 20H41.25ZM37.75 2V1.25H36.25V2H37.75ZM36.25 20C36.25 20.4142 36.5858 20.75 37 20.75C37.4142 20.75 37.75 20.4142 37.75 20H36.25ZM31.25 2V22H32.75V2H31.25ZM31.2516 22.0499C31.3306 23.2337 31.3326 24.6196 31.7885 25.9872C32.261 27.4049 33.2008 28.7794 35.064 30.1103L35.9359 28.8897C34.2991 27.7206 33.5722 26.5951 33.2115 25.5128C32.834 24.3804 32.8361 23.2663 32.7483 21.9501L31.2516 22.0499ZM34.75 29.5V67H36.25V29.5H34.75ZM35.5 67C34.8021 67.2748 34.8022 67.2751 34.8024 67.2754C34.8024 67.2755 34.8025 67.2759 34.8026 67.2761C34.8028 67.2766 34.803 67.2771 34.8033 67.2776C34.8037 67.2787 34.8042 67.28 34.8048 67.2814C34.8059 67.2842 34.8073 67.2877 34.8089 67.2917C34.8122 67.2997 34.8166 67.3102 34.822 67.3228C34.8328 67.348 34.8478 67.3822 34.8673 67.424C34.9062 67.5075 34.963 67.6223 35.0391 67.7578C35.1905 68.0275 35.4228 68.3878 35.7483 68.7508C36.4011 69.4785 37.4642 70.25 39 70.25L39 68.75C38.0202 68.75 37.3334 68.2715 36.865 67.7492C36.6299 67.4872 36.4589 67.2225 36.3471 67.0234C36.2916 66.9246 36.2519 66.844 36.2271 66.7908C36.2147 66.7643 36.2062 66.7447 36.2013 66.7334C36.1989 66.7277 36.1974 66.7241 36.1968 66.7226C36.1965 66.7219 36.1965 66.7218 36.1966 66.7222C36.1967 66.7224 36.1968 66.7228 36.197 66.7233C36.1971 66.7235 36.1973 66.7238 36.1974 66.7241C36.1975 66.7243 36.1976 66.7246 36.1976 66.7246C36.1977 66.7249 36.1978 66.7252 35.5 67ZM39 70.25C40.5358 70.25 41.5989 69.4785 42.2516 68.7508C42.5771 68.3878 42.8094 68.0275 42.9608 67.7578C43.0369 67.6223 43.0938 67.5075 43.1327 67.424C43.1521 67.3822 43.1672 67.348 43.178 67.3228C43.1834 67.3102 43.1877 67.2997 43.191 67.2917C43.1927 67.2877 43.194 67.2842 43.1952 67.2814C43.1957 67.28 43.1962 67.2787 43.1967 67.2776C43.1969 67.2771 43.1971 67.2766 43.1973 67.2761C43.1974 67.2759 43.1975 67.2755 43.1976 67.2754C43.1977 67.2751 43.1978 67.2748 42.5 67C41.8021 66.7252 41.8022 66.7249 41.8024 66.7246C41.8024 66.7246 41.8025 66.7243 41.8026 66.7241C41.8027 66.7238 41.8028 66.7235 41.8029 66.7233C41.8031 66.7228 41.8032 66.7224 41.8033 66.7222C41.8035 66.7218 41.8034 66.7219 41.8031 66.7226C41.8026 66.7241 41.8011 66.7277 41.7986 66.7334C41.7938 66.7447 41.7852 66.7643 41.7729 66.7908C41.7481 66.844 41.7084 66.9246 41.6529 67.0234C41.5411 67.2225 41.37 67.4872 41.135 67.7492C40.6666 68.2715 39.9797 68.75 39 68.75L39 70.25ZM43.25 67V34H41.75V67H43.25ZM45.75 2V22H47.25V2H45.75ZM45.75 22C45.75 24.672 43.9717 27.8491 39.8373 28.7679L40.1627 30.2321C45.0283 29.1509 47.25 25.328 47.25 22H45.75ZM41.25 2V20H42.75V2H41.25ZM36.25 2V20H37.75V2H36.25Z" fill="#483F32"/>
<path d="M61.5 40.25H60.75V41.75H61.5V40.25ZM68 41V41.75H68.75V41H68ZM57 2L57.3911 1.36004C57.1605 1.21911 56.8719 1.21315 56.6357 1.34445C56.3994 1.47574 56.2521 1.72398 56.25 1.99423L57 2ZM56.5 67L55.75 66.9942C55.7493 67.0916 55.7675 67.1882 55.8036 67.2785L56.5 67ZM64 67L64.6431 67.3859C64.7131 67.2693 64.75 67.1359 64.75 67H64ZM64.75 46V45.25H63.25V46H64.75ZM61.5 41.75H68V40.25H61.5V41.75ZM68.75 41V16H67.25V41H68.75ZM68.75 16C68.75 14.2631 67.6893 11.7044 65.8091 9.08739C63.9039 6.43563 61.0812 3.61511 57.3911 1.36004L56.6089 2.63996C60.1188 4.78489 62.7961 7.46437 64.5909 9.96261C66.4107 12.4956 67.25 14.7369 67.25 16H68.75ZM56.25 1.99423L55.75 66.9942L57.25 67.0058L57.75 2.00577L56.25 1.99423ZM56.5 67C55.8036 67.2785 55.8038 67.2788 55.8039 67.2792C55.8039 67.2793 55.8041 67.2796 55.8042 67.2798C55.8043 67.2803 55.8046 67.2808 55.8048 67.2814C55.8052 67.2825 55.8057 67.2837 55.8063 67.2851C55.8074 67.2879 55.8088 67.2913 55.8105 67.2953C55.8138 67.3033 55.8182 67.3137 55.8237 67.3263C55.8346 67.3514 55.8498 67.3855 55.8695 67.4272C55.9087 67.5106 55.9661 67.6251 56.0428 67.7604C56.1953 68.0296 56.4289 68.3894 56.755 68.7517C57.4083 69.4776 58.471 70.25 60 70.25V68.75C59.029 68.75 58.3417 68.2724 57.87 67.7483C57.6336 67.4856 57.4609 67.2204 57.3478 67.0209C57.2917 66.9218 57.2514 66.841 57.2262 66.7876C57.2137 66.761 57.205 66.7413 57.2 66.7299C57.1975 66.7241 57.196 66.7205 57.1954 66.719C57.1951 66.7183 57.195 66.7181 57.1952 66.7185C57.1953 66.7187 57.1954 66.7191 57.1956 66.7196C57.1957 66.7198 57.1958 66.7201 57.1959 66.7204C57.196 66.7206 57.1961 66.7208 57.1961 66.7209C57.1962 66.7212 57.1964 66.7215 56.5 67ZM60 70.25C61.5096 70.25 62.6821 69.4957 63.442 68.805C63.8264 68.4555 64.1218 68.1078 64.3218 67.8469C64.4222 67.716 64.4997 67.6054 64.5533 67.5255C64.5802 67.4855 64.6012 67.453 64.6162 67.4294C64.6237 67.4175 64.6297 67.4079 64.6342 67.4006C64.6364 67.3969 64.6383 67.3939 64.6398 67.3914C64.6405 67.3902 64.6412 67.3891 64.6417 67.3882C64.642 67.3877 64.6423 67.3873 64.6425 67.3869C64.6426 67.3867 64.6428 67.3865 64.6428 67.3864C64.643 67.3861 64.6431 67.3859 64 67C63.3569 66.6141 63.357 66.6139 63.3571 66.6137C63.3572 66.6136 63.3573 66.6134 63.3574 66.6133C63.3575 66.6131 63.3576 66.6129 63.3577 66.6127C63.3579 66.6124 63.358 66.6122 63.358 66.6122C63.3581 66.6122 63.3578 66.6127 63.3571 66.6138C63.3558 66.6159 63.353 66.6203 63.3489 66.6268C63.3407 66.6397 63.327 66.661 63.308 66.6893C63.2699 66.7461 63.2106 66.8309 63.1314 66.9343C62.972 67.1422 62.7361 67.4195 62.433 67.695C61.8179 68.2543 60.9904 68.75 60 68.75V70.25ZM64.75 67V46H63.25V67H64.75Z" fill="#483F32"/>
</svg>
