<svg width="186" height="182" viewBox="0 0 186 182" fill="none" xmlns="http://www.w3.org/2000/svg">
<ellipse cx="93" cy="151" rx="45" ry="26" fill="#1F0B09"/>
<rect x="11" y="10" width="163" height="156" fill="#1F0B09"/>
<g filter="url(#filter0_d_8_75)">
<path d="M50.7177 101.155C50.449 101.155 50.232 101.114 50.0667 101.031C49.922 100.969 49.8497 100.886 49.8497 100.783C49.8497 100.597 49.9427 100.473 50.1287 100.411C50.3354 100.328 50.4697 100.277 50.5317 100.256C51.3377 100.091 51.9577 99.853 52.3917 99.543C52.8257 99.2123 53.0427 98.706 53.0427 98.024V83.64C53.0427 83.144 52.991 82.7823 52.8877 82.555C52.7844 82.307 52.5984 82.1313 52.3297 82.028C52.061 81.904 51.6684 81.8007 51.1517 81.718C50.4697 81.594 50.1287 81.3873 50.1287 81.098C50.1287 80.974 50.2114 80.8913 50.3767 80.85C50.542 80.788 50.759 80.757 51.0277 80.757C51.5857 80.757 52.03 80.7673 52.3607 80.788C52.712 80.8087 53.0427 80.8293 53.3527 80.85C53.6627 80.85 54.045 80.85 54.4997 80.85C55.0164 80.85 55.4607 80.85 55.8327 80.85C56.2047 80.8293 56.587 80.8087 56.9797 80.788C57.3724 80.7673 57.8477 80.757 58.4057 80.757C58.6744 80.757 58.8914 80.788 59.0567 80.85C59.222 80.8913 59.3047 80.974 59.3047 81.098C59.3047 81.2427 59.222 81.3667 59.0567 81.47C58.8914 81.5733 58.633 81.656 58.2817 81.718C57.517 81.8627 56.866 82.0383 56.3287 82.245C55.7914 82.431 55.5227 82.8237 55.5227 83.423V98.024C55.5227 98.6647 55.6674 99.14 55.9567 99.45C56.246 99.76 56.897 99.915 57.9097 99.915H61.7537C62.3117 99.915 62.7974 99.8323 63.2107 99.667C63.6447 99.481 63.965 99.295 64.1717 99.109C64.585 98.7577 64.8847 98.4477 65.0707 98.179C65.2774 97.8897 65.515 97.466 65.7837 96.908C65.825 96.784 65.9077 96.598 66.0317 96.35C66.1764 96.102 66.321 95.978 66.4657 95.978C66.5897 95.978 66.6827 96.04 66.7447 96.164C66.8067 96.288 66.8377 96.412 66.8377 96.536C66.8377 96.5567 66.8274 96.5877 66.8067 96.629C66.8067 96.6497 66.8067 96.6703 66.8067 96.691C66.662 97.2283 66.5277 97.714 66.4037 98.148C66.3004 98.582 66.2074 98.9953 66.1247 99.388C66.0627 99.7807 66.011 100.194 65.9697 100.628C65.949 100.773 65.9077 100.897 65.8457 101C65.8044 101.103 65.701 101.155 65.5357 101.155C64.5024 101.155 63.5104 101.145 62.5597 101.124C61.609 101.103 60.6894 101.083 59.8007 101.062C58.9327 101.062 58.0957 101.052 57.2897 101.031C56.4837 101.01 55.688 101 54.9027 101C54.386 101 53.797 101.01 53.1357 101.031C52.495 101.052 51.9267 101.072 51.4307 101.093C50.9554 101.134 50.7177 101.155 50.7177 101.155ZM78.8032 101.434C77.4392 101.434 76.1372 101.196 74.8972 100.721C73.6572 100.225 72.5619 99.5327 71.6112 98.644C70.6605 97.7347 69.9062 96.66 69.3482 95.42C68.7902 94.1593 68.5112 92.7643 68.5112 91.235C68.5112 89.8297 68.7385 88.4863 69.1932 87.205C69.6479 85.903 70.3195 84.7457 71.2082 83.733C72.0969 82.7203 73.2025 81.9143 74.5252 81.315C75.8479 80.7157 77.3669 80.416 79.0822 80.416C80.4462 80.416 81.7482 80.664 82.9882 81.16C84.2282 81.6353 85.3235 82.3277 86.2742 83.237C87.2249 84.1257 87.9792 85.2003 88.5372 86.461C89.0952 87.701 89.3742 89.0857 89.3742 90.615C89.3742 91.9997 89.1469 93.343 88.6922 94.645C88.2375 95.947 87.5659 97.1043 86.6772 98.117C85.7885 99.1297 84.6829 99.9357 83.3602 100.535C82.0375 101.134 80.5185 101.434 78.8032 101.434ZM79.2682 100.194C80.8595 100.194 82.1822 99.8633 83.2362 99.202C84.2902 98.52 85.0755 97.5797 85.5922 96.381C86.1295 95.1617 86.3982 93.746 86.3982 92.134C86.3982 90.708 86.2329 89.3647 85.9022 88.104C85.5715 86.8433 85.0755 85.7377 84.4142 84.787C83.7735 83.8157 82.9675 83.0613 81.9962 82.524C81.0249 81.9867 79.8882 81.718 78.5862 81.718C77.0362 81.718 75.7342 82.0487 74.6802 82.71C73.6262 83.3713 72.8305 84.3013 72.2932 85.5C71.7559 86.678 71.4872 88.073 71.4872 89.685C71.4872 91.1317 71.6422 92.4853 71.9522 93.746C72.2829 95.0067 72.7685 96.1227 73.4092 97.094C74.0705 98.0653 74.8869 98.83 75.8582 99.388C76.8295 99.9253 77.9662 100.194 79.2682 100.194ZM102.912 101.434C101.486 101.434 100.122 101.186 98.8198 100.69C97.5384 100.173 96.3914 99.4603 95.3788 98.551C94.3868 97.6417 93.6014 96.5773 93.0228 95.358C92.4441 94.118 92.1548 92.785 92.1548 91.359C92.1548 89.8297 92.4544 88.4037 93.0538 87.081C93.6531 85.7583 94.4798 84.601 95.5338 83.609C96.5878 82.617 97.7968 81.842 99.1608 81.284C100.545 80.726 102.013 80.447 103.563 80.447C103.914 80.447 104.389 80.4883 104.989 80.571C105.609 80.633 106.239 80.7157 106.88 80.819C107.541 80.9223 108.13 81.036 108.647 81.16C109.184 81.2633 109.556 81.3667 109.763 81.47C109.866 81.5113 109.928 81.563 109.949 81.625C109.99 81.6663 110.021 81.7387 110.042 81.842C110.124 82.4413 110.197 83.0407 110.259 83.64C110.321 84.2187 110.352 84.7147 110.352 85.128C110.352 85.2727 110.3 85.4173 110.197 85.562C110.114 85.686 110.011 85.748 109.887 85.748C109.68 85.748 109.525 85.655 109.422 85.469C109.318 85.283 109.236 85.097 109.174 84.911C109.05 84.5803 108.915 84.3013 108.771 84.074C108.647 83.826 108.461 83.5573 108.213 83.268C108.089 83.1027 107.82 82.896 107.407 82.648C107.014 82.3793 106.477 82.1417 105.795 81.935C105.113 81.7283 104.276 81.625 103.284 81.625C102.085 81.625 100.99 81.8833 99.9978 82.4C99.0058 82.896 98.1481 83.5883 97.4248 84.477C96.7221 85.345 96.1744 86.337 95.7818 87.453C95.4098 88.569 95.2238 89.7367 95.2238 90.956C95.2238 92.4233 95.4511 93.7357 95.9058 94.893C96.3604 96.0503 96.9701 97.032 97.7348 97.838C98.4994 98.644 99.3674 99.2537 100.339 99.667C101.31 100.08 102.312 100.287 103.346 100.287C104.544 100.287 105.423 100.142 105.981 99.853C106.559 99.5637 106.942 99.326 107.128 99.14C107.355 98.9127 107.562 98.5923 107.748 98.179C107.954 97.7657 108.058 97.2903 108.058 96.753C108.058 96.567 108.058 96.3707 108.058 96.164C108.078 95.9573 108.089 95.7507 108.089 95.544C108.109 95.3373 108.12 95.141 108.12 94.955C108.12 94.7277 108.109 94.5417 108.089 94.397C108.068 94.2317 108.027 94.1077 107.965 94.025C107.799 93.7977 107.51 93.6117 107.097 93.467C106.683 93.3223 106.27 93.219 105.857 93.157C105.443 93.095 105.133 93.064 104.927 93.064C104.844 93.064 104.72 93.0123 104.555 92.909C104.389 92.8057 104.307 92.6817 104.307 92.537C104.307 92.3717 104.389 92.2477 104.555 92.165C104.72 92.0617 104.844 92.01 104.927 92.01C105.443 92.01 105.888 92.0203 106.26 92.041C106.632 92.0617 107.014 92.0823 107.407 92.103C107.799 92.1237 108.275 92.134 108.833 92.134C109.37 92.134 109.825 92.1133 110.197 92.072C110.569 92.0307 111.034 92.01 111.592 92.01C111.674 92.01 111.798 92.041 111.964 92.103C112.15 92.165 112.243 92.2993 112.243 92.506C112.243 92.6507 112.15 92.7747 111.964 92.878C111.798 92.9813 111.674 93.0433 111.592 93.064C111.137 93.188 110.817 93.374 110.631 93.622C110.465 93.8493 110.352 94.1697 110.29 94.583C110.228 95.0377 110.186 95.4407 110.166 95.792C110.145 96.1433 110.135 96.5153 110.135 96.908V97.745C110.135 97.8483 110.155 97.931 110.197 97.993C110.238 98.055 110.279 98.1377 110.321 98.241C110.383 98.3443 110.465 98.4373 110.569 98.52C110.672 98.6027 110.724 98.6853 110.724 98.768C110.724 98.8507 110.703 98.9643 110.662 99.109C110.641 99.233 110.517 99.3157 110.29 99.357C110.145 99.3777 109.856 99.5017 109.422 99.729C109.008 99.9357 108.481 100.173 107.841 100.442C107.2 100.711 106.466 100.938 105.64 101.124C104.813 101.331 103.904 101.434 102.912 101.434ZM125.031 101.434C123.667 101.434 122.365 101.196 121.125 100.721C119.885 100.225 118.789 99.5327 117.839 98.644C116.888 97.7347 116.134 96.66 115.576 95.42C115.018 94.1593 114.739 92.7643 114.739 91.235C114.739 89.8297 114.966 88.4863 115.421 87.205C115.875 85.903 116.547 84.7457 117.436 83.733C118.324 82.7203 119.43 81.9143 120.753 81.315C122.075 80.7157 123.594 80.416 125.31 80.416C126.674 80.416 127.976 80.664 129.216 81.16C130.456 81.6353 131.551 82.3277 132.502 83.237C133.452 84.1257 134.207 85.2003 134.765 86.461C135.323 87.701 135.602 89.0857 135.602 90.615C135.602 91.9997 135.374 93.343 134.92 94.645C134.465 95.947 133.793 97.1043 132.905 98.117C132.016 99.1297 130.91 99.9357 129.588 100.535C128.265 101.134 126.746 101.434 125.031 101.434ZM125.496 100.194C127.087 100.194 128.41 99.8633 129.464 99.202C130.518 98.52 131.303 97.5797 131.82 96.381C132.357 95.1617 132.626 93.746 132.626 92.134C132.626 90.708 132.46 89.3647 132.13 88.104C131.799 86.8433 131.303 85.7377 130.642 84.787C130.001 83.8157 129.195 83.0613 128.224 82.524C127.252 81.9867 126.116 81.718 124.814 81.718C123.264 81.718 121.962 82.0487 120.908 82.71C119.854 83.3713 119.058 84.3013 118.521 85.5C117.983 86.678 117.715 88.073 117.715 89.685C117.715 91.1317 117.87 92.4853 118.18 93.746C118.51 95.0067 118.996 96.1227 119.637 97.094C120.298 98.0653 121.114 98.83 122.086 99.388C123.057 99.9253 124.194 100.194 125.496 100.194Z" fill="#DCDCDC"/>
</g>
<rect width="186" height="5" fill="#1F0B09"/>
<rect y="5" width="186" height="5" fill="#44475A"/>
<defs>
<filter id="filter0_d_8_75" x="45.8497" y="80.416" width="93.7521" height="29.018" filterUnits="userSpaceOnUse" color-interpolation-filters="sRGB">
<feFlood flood-opacity="0" result="BackgroundImageFix"/>
<feColorMatrix in="SourceAlpha" type="matrix" values="0 0 0 0 0 0 0 0 0 0 0 0 0 0 0 0 0 0 127 0" result="hardAlpha"/>
<feOffset dy="4"/>
<feGaussianBlur stdDeviation="2"/>
<feComposite in2="hardAlpha" operator="out"/>
<feColorMatrix type="matrix" values="0 0 0 0 0 0 0 0 0 0 0 0 0 0 0 0 0 0 0.25 0"/>
<feBlend mode="normal" in2="BackgroundImageFix" result="effect1_dropShadow_8_75"/>
<feBlend mode="normal" in="SourceGraphic" in2="effect1_dropShadow_8_75" result="shape"/>
</filter>
</defs>
</svg>
